<?xml version="1.0" encoding="utf-8"?>
<!-- Generator: Adobe Illustrator 19.2.0, SVG Export Plug-In . SVG Version: 6.00 Build 0)  -->
<svg version="1.1" id="Layer_1" xmlns="http://www.w3.org/2000/svg" xmlns:xlink="http://www.w3.org/1999/xlink" x="0px" y="0px"
	 viewBox="0 0 200 200" style="enable-background:new 0 0 200 200;" xml:space="preserve">
<style type="text/css">
	.st0{fill:url(#SVGID_1_);}
</style>
<g>
	<linearGradient id="SVGID_1_" gradientUnits="userSpaceOnUse" x1="35.043" y1="15.4298" x2="147.8028" y2="151.2215">
		<stop  offset="0" style="stop-color:#000000"/>
		<stop  offset="0.5879" style="stop-color:#000000"/>
		<stop  offset="1" style="stop-color:#000000"/>
	</linearGradient>
	<path class="st0" d="M64.9,127.5l1,9.9l-1.5,0.2l-1-9.2c-3.2-2.3-5.1-6-5.1-10h1.5c0,3.6,1.8,6.9,4.7,9L64.9,127.5z M135.4,127.3
		l-0.3,0.2l-1,9.9l1.5,0.2l1-9.2c3.2-2.3,5.1-6,5.1-10h-1.5C140.1,122,138.3,125.3,135.4,127.3z M101.1,90.5v-6.7h-1.3l1.3-5.6
		l-1.5-0.3l-1.7,7.5h1.7v5.2H101.1z M162.1,107.8c-2.9,6.5-1.9,10.6-1.1,12.6c0.8,1.8,0.6,3.9-0.4,5.6c-1.1,1.9-2.8,3.1-4.7,3.4
		l-0.1,0c0.2,3.8,0.1,8.3-0.7,13.9c-3.2,23.1-40.2,52.5-55.1,52.5s-51.9-29.4-55.1-52.5c-0.8-5.6-0.9-10.2-0.7-13.9l-0.1,0
		c-2-0.3-3.6-1.5-4.7-3.4c-1-1.7-1.2-3.8-0.4-5.6c0.8-1.9,1.8-6.1-1.1-12.6c-2.7-6.1-3.2-12.1-1.4-16.1c1.1-2.4,3-4.1,5.6-4.8l0.1,0
		c-4.4-18.2-6.6-43.9,16.2-58c0,0,5.3-23.1,41.7-24.6c23.5,0,50.9,13,58.7,44.7c3.4,13.8,1.7,27.3-0.8,37.9l0.1,0
		c2.5,0.7,4.4,2.4,5.5,4.8C165.4,95.7,164.9,101.7,162.1,107.8z M44.3,127.9c0.1-0.7,0.1-1.3,0.2-1.9c0,0,0,0,0,0
		c0.6-4.5,1.6-7.8,2.4-10.8c0-0.1,0.1-0.3,0.1-0.4c0-0.2,0.1-0.4,0.1-0.5c0.1-0.3,0.1-0.6,0.2-0.9c0-0.1,0-0.2,0.1-0.4
		c0-0.3,0.1-0.5,0.1-0.8c0-0.1,0-0.2,0.1-0.3c0.1-0.3,0.1-0.7,0.1-1c0-0.1,0-0.2,0-0.2c0-0.3,0-0.6,0.1-0.8c0-0.1,0-0.2,0-0.3
		c0-0.4,0-0.7,0-1.1c0-0.1,0-0.1,0-0.2c0-0.3,0-0.6-0.1-1c0-0.1,0-0.2,0-0.3c-0.1-0.4-0.1-0.8-0.2-1.2c0,0,0,0,0,0c0,0,0,0,0,0
		c0-0.2-0.1-0.4-0.1-0.5c0-0.1,0-0.1-0.1-0.2c0-0.1-0.1-0.3-0.1-0.4c0-0.1,0-0.2-0.1-0.3c0-0.1-0.1-0.3-0.1-0.4
		c0-0.1-0.1-0.2-0.1-0.3c0-0.1-0.1-0.3-0.1-0.5c-1-3.5-2.8-8.7-4.4-14.9c-6.7,2-6.9,10.8-3.3,18.9c3,6.6,2.2,11.3,1.1,13.7
		c-0.6,1.4-0.5,3,0.3,4.3C41.3,126.4,42.5,127.6,44.3,127.9z M126.1,164.3c-0.4-2.6-3.3-9-4.7-12c-0.5-1.1-1.4-2.1-2.5-2.7
		c-3.1-1.8-10-5.2-19-5.2c-8.9,0-15.9,3.4-19,5.2c-1.1,0.6-2,1.6-2.5,2.7c-1.4,3-4.3,9.4-4.7,12c0,0,6.3,7.4,14.1,6.8
		c0,0,3.4-10.8,6.2-12.9h0c1.8,0.3,3.7,0.6,5.8,0.6c2.1,0,4-0.2,5.8-0.6h0c2.8,2.1,6.2,12.9,6.2,12.9
		C119.9,171.7,126.1,164.3,126.1,164.3z M146.6,126c-1.1-17-7-54.7-7-54.7c8.3-14.4-2.5-35-2.5-35c-15.8-1.3-37.1,5.3-37.1,5.3
		s-21.3-6.6-37.1-5.3c0,0-10.9,20.6-2.5,35c0,0-5.9,37.7-7,54.7c-1.1,17,5.3,22.5,16.3,25.4l5.4-13.7c0.1-0.2,0.2-0.3,0.3-0.4
		c1.5-1,11.7-7.5,24.6-7.5s23.1,6.5,24.6,7.5c0.1,0.1,0.2,0.2,0.3,0.4l5.4,13.7C141.3,148.6,147.7,143.1,146.6,126z M160.8,107.2
		c3.6-8.1,3.4-17-3.3-18.9c-1.6,6.4-3.4,11.7-4.5,15.1c0,0,0,0,0,0c-0.1,0.3-0.2,0.5-0.2,0.8c0,0,0,0.1,0,0.1
		c-0.1,0.2-0.1,0.4-0.2,0.6c0,0,0,0.1,0,0.1c-0.1,0.2-0.1,0.5-0.2,0.7c0,0,0,0,0,0c-0.1,0.4-0.1,0.8-0.2,1.2c0,0.1,0,0.2,0,0.3
		c0,0.3-0.1,0.6-0.1,1c0,0.1,0,0.1,0,0.2c0,0.4,0,0.7,0,1.1c0,0.1,0,0.2,0,0.3c0,0.3,0,0.6,0.1,0.8c0,0.1,0,0.2,0,0.3
		c0,0.3,0.1,0.7,0.1,1c0,0.1,0,0.2,0.1,0.3c0,0.2,0.1,0.5,0.1,0.7c0,0.1,0,0.2,0.1,0.4c0.1,0.3,0.1,0.6,0.2,0.9
		c0,0.2,0.1,0.4,0.1,0.6c0,0.1,0.1,0.3,0.1,0.4c0.8,3,1.8,6.3,2.4,10.8c0,0,0,0,0,0c0.1,0.6,0.2,1.2,0.2,1.9c1.8-0.3,3-1.5,3.7-2.7
		c0.8-1.3,0.9-2.9,0.3-4.3C158.6,118.4,157.9,113.8,160.8,107.2z M91.3,65.8c3.1,1,6,2,8.6,2c4.1,0,7.9-2.2,11.9-4.6
		c4-2.4,8.2-4.9,13.1-5.2c1.9-0.1,3.9,0,5.9,0.5l0.3-1.5c-2.1-0.5-4.3-0.6-6.3-0.5c-5.2,0.4-9.5,2.9-13.7,5.4
		c-3.8,2.3-7.5,4.4-11.2,4.4c-2.4,0-5.2-0.9-8.2-1.9c-6.5-2.1-14.7-4.8-23.3,1.1l0.8,1.3C77.3,61.2,84.7,63.6,91.3,65.8z M92.2,56.1
		c2.8,1.4,5.7,2.8,9.2,2.8c2.2,0,4.7-0.6,7.6-2.2l-0.7-1.3c-6.7,3.7-10.7,1.6-15.4-0.7c-4.9-2.5-10.5-5.2-19.8-0.5l0.7,1.3
		C82.3,51.2,87.3,53.7,92.2,56.1z M127.1,51.1l0.3-1.5c-4.7-0.9-9.3,1.3-9.5,1.4l0.7,1.4C118.7,52.4,122.9,50.3,127.1,51.1z
		 M79,114.8c-2.5-0.1-4.8-1.2-6.4-3.1l-1.2,1c1.9,2.2,4.6,3.5,7.5,3.7c0.1,0,0.3,0,0.4,0c4,0,7.6-2.3,9.3-6l-1.4-0.6
		C85.8,112.9,82.6,114.9,79,114.8z M108.8,87.5l28.5-2.1l-8.8-6.7l-16.4,0.8v-3.3h-1.5v6.3l-3.4,3.4v37.7c-0.6,0.6-2.9,2.6-7.3,2.6
		c-4.4,0-6.7-1.9-7.3-2.6V86l-3.4-3.4v-6.3h-1.5v3.3l-16.3-0.8l-8.8,6.7l28.4,2.1v5.9H68.9V95h5.4c-0.1,0.4-0.1,0.7-0.1,1.1v4
		c0,3.1,2.5,5.6,5.6,5.6c3.1,0,5.6-2.5,5.6-5.6v-4c0-0.4,0-0.7-0.1-1.1h6.1v29.2l0.2,0.2c0.1,0.1,2.8,3.3,8.6,3.3
		c5.9,0,8.5-3.2,8.6-3.3l0.2-0.2V95h5.3c-0.1,0.4-0.1,0.7-0.1,1.1v4c0,3.1,2.5,5.6,5.6,5.6c3.1,0,5.6-2.5,5.6-5.6v-4
		c0-0.4,0-0.7-0.1-1.1h6.4v-1.5h-22.6V87.5z M121,114.8c-3.6,0.1-6.8-1.9-8.3-5.1l-1.4,0.6c1.7,3.7,5.3,6,9.3,6c0.1,0,0.3,0,0.4,0
		c2.9-0.1,5.6-1.4,7.5-3.7l-1.2-1C125.7,113.6,123.4,114.7,121,114.8z M100.1,147.2L100.1,147.2C100.1,147.2,100,147.2,100.1,147.2
		C100,147.2,100,147.2,100.1,147.2L100.1,147.2C100,147.2,100,147.2,100.1,147.2L100.1,147.2L100.1,147.2c-0.1,0-0.1,0-0.1,0
		c0,0,0,0,0,0v0c-8.9,0-14.1,2.7-15.9,3.8c-0.1,0.1-0.2,0.1-0.3,0.2l1,1.5c0,0,0,0,0,0c1.7-1.1,6.7-3.6,15.2-3.6c0,0,0,0,0,0
		c0,0,0,0,0,0c8.6,0,13.5,2.5,15.2,3.6c0,0,0,0,0,0l1-1.5c-0.1-0.1-0.2-0.1-0.3-0.2C114.2,149.9,109,147.2,100.1,147.2z"/>
</g>
</svg>
