<?xml version="1.0" encoding="utf-8"?>
<!-- Generator: Adobe Illustrator 19.2.0, SVG Export Plug-In . SVG Version: 6.00 Build 0)  -->
<svg version="1.1" id="Layer_1" xmlns="http://www.w3.org/2000/svg" xmlns:xlink="http://www.w3.org/1999/xlink" x="0px" y="0px"
	 viewBox="0 0 200 200" style="enable-background:new 0 0 200 200;" xml:space="preserve">
<path d="M164.9,91.9c-1.1-2.5-3.1-4.2-5.7-4.9l-0.1,0c2.6-10.9,4.3-24.8,0.8-39c-8-32.6-36.2-46-60.4-46
	C62.1,3.6,56.7,27.3,56.7,27.3C33.2,41.8,35.4,68.2,40,87l-0.1,0c-2.6,0.8-4.6,2.5-5.7,4.9c-1.9,4.1-1.4,10.3,1.4,16.6
	c3,6.7,2,11,1.2,12.9c-0.8,1.8-0.6,4,0.4,5.8c1.2,2,2.9,3.2,4.9,3.5l0.1,0c-0.2,3.9-0.1,8.5,0.7,14.3c3.3,23.8,41.3,54,56.7,54
	c15.4,0,53.4-30.2,56.7-54c0.8-5.8,0.9-10.5,0.7-14.3l0.1,0c2-0.3,3.7-1.5,4.9-3.5c1-1.8,1.2-3.9,0.4-5.8c-0.8-2-1.8-6.3,1.2-12.9
	C166.3,102.3,166.8,96.1,164.9,91.9z M45.9,110.6c0,0.3,0,0.6-0.1,0.9c0,0.1,0,0.2,0,0.3c0,0.3-0.1,0.7-0.1,1c0,0.1,0,0.2-0.1,0.3
	c0,0.3-0.1,0.5-0.1,0.8c0,0.1,0,0.2-0.1,0.4c-0.1,0.3-0.1,0.6-0.2,1c0,0.2-0.1,0.4-0.1,0.6c0,0.2-0.1,0.3-0.1,0.5
	c-0.8,3.1-1.9,6.5-2.5,11.1c0,0,0,0,0,0c-0.1,0.6-0.2,1.3-0.2,2c-1.9-0.3-3.1-1.5-3.8-2.8c-0.8-1.3-0.9-3-0.3-4.4
	c1.1-2.5,1.9-7.3-1.2-14.1c-3.7-8.4-3.5-17.5,3.4-19.5c1.6,6.4,3.5,11.8,4.5,15.4c0,0.2,0.1,0.3,0.1,0.5c0,0.1,0.1,0.2,0.1,0.3
	c0,0.2,0.1,0.3,0.1,0.4c0,0.1,0.1,0.2,0.1,0.3c0,0.1,0.1,0.3,0.1,0.4c0,0.1,0,0.1,0.1,0.2c0,0.2,0.1,0.4,0.1,0.6c0,0,0,0,0,0
	c0,0,0,0,0,0c0.1,0.4,0.1,0.8,0.2,1.2c0,0.1,0,0.2,0,0.3c0,0.3,0.1,0.7,0.1,1c0,0.1,0,0.1,0,0.2c0,0.4,0,0.7,0,1.1
	C45.9,110.4,45.9,110.5,45.9,110.6z M111.9,173.7c0,0-3.5-11.1-6.4-13.3h0c-1.8,0.4-3.8,0.6-5.9,0.6s-4.1-0.2-5.9-0.6h0
	c-2.8,2.1-6.4,13.3-6.4,13.3c-8.1,0.6-14.5-7-14.5-7c0.4-2.6,3.4-9.2,4.8-12.4c0.5-1.2,1.4-2.2,2.6-2.8c3.2-1.8,10.3-5.3,19.5-5.3
	c9.2,0,16.3,3.5,19.5,5.3c1.1,0.6,2,1.6,2.6,2.8c1.4,3.1,4.4,9.7,4.8,12.4C126.5,166.7,120,174.3,111.9,173.7z M130.7,153.5
	l-5.6-14.1c-0.1-0.2-0.2-0.3-0.3-0.4c-1.6-1.1-12-7.8-25.3-7.8c-13.3,0-23.8,6.7-25.3,7.8c-0.1,0.1-0.2,0.2-0.3,0.4l-5.6,14.1
	c-11.3-2.9-17.9-8.6-16.8-26.1c1.2-17.5,7.2-56.3,7.2-56.3c-8.6-14.8,2.6-36.1,2.6-36.1c16.2-1.4,38.1,5.5,38.1,5.5
	s21.9-6.8,38.1-5.5c0,0,11.2,21.2,2.6,36.1c0,0,6,38.8,7.2,56.3C148.7,144.9,142,150.5,130.7,153.5z M161,122
	c0.6,1.4,0.5,3.1-0.3,4.4c-0.7,1.3-2,2.5-3.8,2.8c-0.1-0.7-0.1-1.3-0.2-2c0,0,0,0,0,0c-0.6-4.6-1.7-8-2.5-11.1
	c0-0.1-0.1-0.3-0.1-0.4c-0.1-0.2-0.1-0.4-0.1-0.6c-0.1-0.3-0.2-0.6-0.2-1c0-0.1-0.1-0.2-0.1-0.4c-0.1-0.3-0.1-0.5-0.1-0.8
	c0-0.1,0-0.2-0.1-0.3c-0.1-0.3-0.1-0.7-0.1-1c0-0.1,0-0.2,0-0.3c0-0.3,0-0.6-0.1-0.9c0-0.1,0-0.2,0-0.3c0-0.4,0-0.7,0-1.1
	c0-0.1,0-0.1,0-0.2c0-0.3,0.1-0.7,0.1-1c0-0.1,0-0.2,0-0.3c0.1-0.4,0.1-0.8,0.2-1.2c0,0,0,0,0,0c0-0.2,0.1-0.5,0.2-0.7
	c0,0,0-0.1,0-0.2c0.1-0.2,0.1-0.4,0.2-0.7c0,0,0-0.1,0-0.1c0.1-0.3,0.2-0.5,0.2-0.8c0,0,0,0,0,0c1.1-3.5,2.9-8.9,4.6-15.6
	c6.9,2,7.1,11.1,3.3,19.5C159.1,114.7,159.9,119.5,161,122z"/>
<path d="M108.6,85.7l29.3-2.1l-9-6.9l-16.8,0.8v-3.4h-1.6v6.5l-3.5,3.5V120c-0.6,0.6-3,2.6-7.5,2.6c-4.5,0-6.9-2-7.5-2.6V84.1
	l-3.5-3.5v-6.5H87v3.4l-16.8-0.8l-9,6.9l29.2,2.1v6.1h-23v1.6H73c-0.1,0.4-0.1,0.7-0.1,1.1v4.2c0,3.2,2.6,5.7,5.7,5.7
	c3.2,0,5.7-2.6,5.7-5.7v-4.2c0-0.4,0-0.8-0.1-1.1h6.3v27.2l0.2,0.2c0.1,0.1,2.8,3.4,8.9,3.4c6.1,0,8.8-3.3,8.9-3.4l0.2-0.2V93.4h5.5
	c-0.1,0.4-0.1,0.7-0.1,1.1v4.2c0,3.2,2.6,5.7,5.7,5.7s5.7-2.6,5.7-5.7v-4.2c0-0.4,0-0.8-0.1-1.1h6.6v-1.6h-23.3V85.7z"/>
</svg>
