<?xml version="1.0" encoding="utf-8"?>
<!-- Generator: Adobe Illustrator 19.2.0, SVG Export Plug-In . SVG Version: 6.00 Build 0)  -->
<svg version="1.1" id="Layer_1" xmlns="http://www.w3.org/2000/svg" xmlns:xlink="http://www.w3.org/1999/xlink" x="0px" y="0px"
	 viewBox="0 0 200 200" style="enable-background:new 0 0 200 200;" xml:space="preserve">
<style type="text/css">
	.st0{fill:url(#SVGID_1_);}
	.st1{fill:#FFFFFF;}
	.st2{fill:#FFEBCF;}
	.st3{fill:#E4BB93;}
	.st4{fill:url(#SVGID_2_);}
	.st5{fill:url(#SVGID_3_);}
	.st6{fill:#E6E7E8;}
	.st7{fill:#185B59;}
</style>
<linearGradient id="SVGID_1_" gradientUnits="userSpaceOnUse" x1="100" y1="3.5" x2="100" y2="196.5">
	<stop  offset="0" style="stop-color:#7CCBBE"/>
	<stop  offset="0.5879" style="stop-color:#53C5CC"/>
	<stop  offset="1" style="stop-color:#3AC2D5"/>
</linearGradient>
<circle class="st0" cx="100" cy="100" r="96.5"/>
<path class="st1" d="M167.6,169.6l-33.2-13.8v5c-3.7,4.1-7.8,8-12.1,11.3H77.7c-4.2-3.3-8.4-7.2-12.1-11.3l0-4.8l-33.1,13.7
	C49.9,186.6,73.8,197,100,197C126.3,197,150.1,186.5,167.6,169.6z"/>
<path class="st2" d="M139.6,124.3c-0.9-13.8-5.6-43.9-5.9-46c3.6-6.3,2.8-14.1,1.5-19.4c-1.4-5.8-3.7-10.2-3.7-10.3l-0.1-0.2l-0.2,0
	c-12.7-1.1-29.8,4-31.2,4.5c-1.4-0.4-18.5-5.5-31.2-4.5l-0.2,0l-0.1,0.2c0,0-2.3,4.4-3.7,10.3c-1.3,5.4-2.1,13.1,1.5,19.4
	c-0.3,2.1-5,32.2-5.9,46c-1,14.8,4.9,19.4,14,21.7l0.3,0.1l4.7-11.8c0-0.1,0.1-0.1,0.1-0.2c1-0.6,9.6-6.3,20.5-6.3
	c10.9,0,19.6,5.7,20.5,6.3c0.1,0,0.1,0.1,0.1,0.2l4.7,11.8l0.3-0.1C134.7,143.6,140.5,139,139.6,124.3z"/>
<path class="st2" d="M122.3,156.5c-0.4-2.1-2.6-7.3-4-10.2c-0.5-1-1.2-1.9-2.2-2.4c-2.8-1.6-8.7-4.4-16.1-4.4
	c-7.5,0-13.3,2.8-16.1,4.4c-1,0.6-1.7,1.4-2.2,2.4c-1.3,2.9-3.6,8.1-4,10.2l0,0.1l0.1,0.1c0.2,0.3,5.5,6.3,12.2,5.9l0.2,0l0.1-0.2
	c0-0.1,2.8-8.8,5-10.6c1.6,0.3,3.2,0.5,4.8,0.5c1.6,0,3.2-0.2,4.8-0.5c2.2,1.9,5,10.5,5,10.6l0.1,0.2l0.2,0c0.3,0,0.5,0,0.8,0
	c6.3,0,11.2-5.6,11.4-5.9l0.1-0.1L122.3,156.5z"/>
<polygon class="st1" points="109.7,85.2 124,84.5 131.4,90.1 106.8,91.9 106.8,90.8 109.7,88 "/>
<polygon class="st1" points="90.4,85.2 76,84.5 68.7,90.1 93.2,91.9 93.2,90.8 90.4,88 "/>
<path class="st3" d="M70.1,134l-0.8-7.8c-2.7-2-4.3-5.1-4.3-8.4h1.3c0,3,1.5,5.8,4,7.6l0.2,0.2l0.9,8.3L70.1,134z"/>
<path class="st3" d="M129.9,134l-1.3-0.1l0.9-8.3l0.2-0.2c2.5-1.7,4-4.5,4-7.6h1.3c0,3.3-1.6,6.5-4.3,8.4L129.9,134z"/>
<polygon class="st3" points="101,94.4 99.7,94.4 99.7,90 98.2,90 99.7,83.7 100.9,84 99.8,88.7 101,88.7 "/>
<path class="st2" d="M55.8,107.2c-0.5-2.5-2.6-8-4.3-14.8c-5.6,1.7-5.8,9.1-2.8,16c2.5,5.6,1.8,9.5,1,11.5c-0.5,1.2-0.4,2.5,0.3,3.6
	c0.6,1,1.6,2.1,3.1,2.3C53.9,116.9,57.1,113.2,55.8,107.2z"/>
<path class="st2" d="M148.5,92.5c-1.7,6.9-3.8,12.2-4.3,14.8c-1.3,6,1.9,9.7,2.7,18.6c1.5-0.2,2.5-1.2,3.1-2.3
	c0.6-1.1,0.8-2.4,0.3-3.6c-0.9-2.1-1.5-6,1-11.5C154.3,101.6,154.1,94.1,148.5,92.5z"/>
<path class="st3" d="M99.9,75.2c-2.2,0-4.7-0.8-7.3-1.6c-5.5-1.8-11.8-3.8-18.5,0.7l-0.7-1.1c7.3-4.9,14.1-2.7,19.6-0.9
	c2.5,0.8,4.9,1.6,6.9,1.6c3.1,0,6.2-1.8,9.4-3.7c3.5-2.1,7.2-4.3,11.6-4.6c1.7-0.1,3.5,0,5.3,0.4l-0.3,1.2c-1.7-0.4-3.4-0.5-4.9-0.4
	c-4.1,0.3-7.6,2.4-11,4.4C106.6,73.3,103.4,75.2,99.9,75.2z"/>
<path class="st3" d="M101.1,67.8c-2.9,0-5.3-1.2-7.7-2.4c-4.1-2-8.3-4.1-15.5-0.4l-0.6-1.1c7.8-4,12.5-1.6,16.7,0.4
	c3.9,2,7.3,3.6,13,0.6l0.6,1.1C105.1,67.3,103,67.8,101.1,67.8z"/>
<path class="st3" d="M115.7,62.3l-0.6-1.1c0.2-0.1,4-2,8-1.2l-0.2,1.3C119.3,60.5,115.7,62.2,115.7,62.3z"/>
<path class="st3" d="M82.6,116.1c-0.1,0-0.2,0-0.3,0c-2.4-0.1-4.7-1.2-6.3-3.1l1-0.8c1.3,1.6,3.3,2.5,5.4,2.6c3,0.1,5.7-1.6,7-4.3
	l1.2,0.5C89.1,114.2,86,116.1,82.6,116.1z"/>
<path class="st3" d="M100,125.7c-5,0-7.2-2.7-7.3-2.8l-0.1-0.2V91.1l-2.8-2.8v-5.8H91v5.3l2.8,2.8v31.8c0.5,0.5,2.4,2.2,6.1,2.2
	c3.7,0,5.6-1.6,6.1-2.2V90.5l2.8-2.8v-5.3h1.3v5.8l-2.8,2.8v31.7l-0.1,0.2C107.2,123.1,105,125.7,100,125.7z"/>
<path class="st3" d="M117.4,116.1c-3.4,0-6.4-2-7.8-5.1l1.2-0.5c1.2,2.7,3.9,4.4,7,4.3c2.1-0.1,4-1,5.4-2.6l1,0.8
	c-1.6,1.9-3.9,3-6.3,3.1C117.6,116.1,117.5,116.1,117.4,116.1z"/>
<path class="st1" d="M144.2,107.2c1.3-5.9,10.5-26.5,5.2-47.9c-6.6-26.7-29.6-37.6-49.4-37.6C69.4,23,64.9,42.5,64.9,42.5
	C36.5,60,54.1,98.9,55.8,107.2s-4.9,12.1-2.2,31.6C56.3,158.3,87.4,183,100,183s43.7-24.7,46.4-44.2
	C149.1,119.4,142.4,115.5,144.2,107.2z M110.1,162.3c0,0-2.9-9.1-5.2-10.9h0c-1.5,0.3-3.1,0.5-4.9,0.5s-3.4-0.2-4.9-0.5h0
	c-2.3,1.8-5.2,10.9-5.2,10.9c-6.6,0.5-11.9-5.7-11.9-5.7c0.4-2.2,2.8-7.6,4-10.1c0.4-1,1.2-1.8,2.1-2.3c2.6-1.5,8.5-4.4,16-4.4
	s13.4,2.8,16,4.4c0.9,0.5,1.6,1.3,2.1,2.3c1.2,2.6,3.6,7.9,4,10.1C122,156.5,116.7,162.7,110.1,162.3z M125.5,145.7l-4.5-11.5
	c-0.1-0.1-0.1-0.2-0.2-0.3c-1.3-0.9-9.9-6.4-20.7-6.4s-19.4,5.5-20.7,6.4c-0.1,0.1-0.2,0.2-0.2,0.3l-4.5,11.5
	c-9.3-2.4-14.7-7-13.7-21.4c1-14.4,5.9-46.1,5.9-46.1c-7-12.1,2.1-29.5,2.1-29.5c13.3-1.1,31.2,4.5,31.2,4.5s17.9-5.6,31.2-4.5
	c0,0,9.1,17.4,2.1,29.5c0,0,4.9,31.7,5.9,46.1S134.8,143.3,125.5,145.7z"/>
<linearGradient id="SVGID_2_" gradientUnits="userSpaceOnUse" x1="82.8803" y1="97.5065" x2="82.8803" y2="107.1379">
	<stop  offset="0" style="stop-color:#7CCBBE"/>
	<stop  offset="0.5879" style="stop-color:#53C5CC"/>
	<stop  offset="1" style="stop-color:#3AC2D5"/>
</linearGradient>
<path class="st4" d="M78.5,97.5c-0.2,0.5-0.3,1-0.3,1.6v3.4c0,2.6,2.1,4.7,4.7,4.7c2.6,0,4.7-2.1,4.7-4.7v-3.4
	c0-0.5-0.1-1.1-0.3-1.6H78.5z"/>
<linearGradient id="SVGID_3_" gradientUnits="userSpaceOnUse" x1="116.4949" y1="97.5065" x2="116.4949" y2="107.1379">
	<stop  offset="0" style="stop-color:#7CCBBE"/>
	<stop  offset="0.5879" style="stop-color:#53C5CC"/>
	<stop  offset="1" style="stop-color:#3AC2D5"/>
</linearGradient>
<path class="st5" d="M112.1,97.5c-0.2,0.5-0.3,1-0.3,1.6v3.4c0,2.6,2.1,4.7,4.7,4.7c2.6,0,4.7-2.1,4.7-4.7v-3.4
	c0-0.5-0.1-1.1-0.3-1.6H112.1z"/>
<rect x="73.8" y="96.9" class="st3" width="19.4" height="1.3"/>
<rect x="107" y="96.9" class="st3" width="19.4" height="1.3"/>
<path class="st3" d="M113.5,144.6c-1.5-0.8-5.9-2.7-13.4-2.7v0c0,0,0,0,0,0c0,0,0,0,0,0v0l0,0l0,0v0c0,0,0,0,0,0c0,0,0,0,0,0v0
	c-7.5,0-11.9,1.9-13.4,2.7c-0.1,0-0.1,0.1-0.2,0.1l0.8,1.1c0,0,0,0,0,0c1.5-0.8,5.6-2.5,12.8-2.5c0,0,0,0,0,0s0,0,0,0
	c7.2,0,11.4,1.8,12.8,2.5c0,0,0,0,0,0l0.8-1.1C113.6,144.6,113.6,144.6,113.5,144.6z"/>
<path class="st3" d="M99.8,152.7c-2,0-4.2-0.3-6.5-1l0.3-1.2c2.2,0.6,4.3,0.9,6.2,0.9c2.5,0,4.9-0.6,6.5-1l0.4,1.2
	C105,152.1,102.4,152.7,99.8,152.7z"/>
<path class="st6" d="M48.2,163.2l-8.5,12.7c0.8,0.7,1.7,1.3,2.6,2L53.5,161L48.2,163.2z"/>
<path class="st6" d="M140.6,158.3l-3.1-1.3c-1,1.2-2,2.5-3.1,3.7c0,0,0,0,0,0v0C123.5,173,108,183,100,183c-8,0-23.5-10-34.4-22.3v0
	c0,0,0,0,0,0c-1-1.2-2-2.4-3-3.6l-3.1,1.3c1.9,2.4,3.9,4.8,6.1,7.1v25.2c0.9,0.4,1.9,0.7,2.9,1v-23.4c10.8,10.3,23.8,17.9,31.5,17.9
	c7.7,0,20.7-7.6,31.5-17.9v23.4c1-0.3,1.9-0.7,2.9-1v-25.2C136.6,163.2,138.7,160.8,140.6,158.3z"/>
<path class="st6" d="M151.8,163.2l-5.4-2.2l11.3,16.9c0.9-0.6,1.7-1.3,2.6-2L151.8,163.2z"/>
<path class="st7" d="M99.9,183.1c-2,0-4.5-0.6-7.3-1.8l-3.1,15.2c3.4,0.4,6.9,0.6,10.4,0.6c3.5,0,6.9-0.2,10.3-0.5l-3.1-15.2
	C104.5,182.4,102,183.1,99.9,183.1z"/>
</svg>
